<?xml version="1.0" encoding="UTF-8"?><svg id="Layer_1" xmlns="http://www.w3.org/2000/svg" viewBox="0 0 228.07 67.21"><defs><style>.cls-1{fill:#253a67;}.cls-2{fill:#1283b2;}</style></defs><path class="cls-1" d="M85.22,15.93v3.91c.94-1.44,1.33-2.01,1.97-2.62,1.09-1.18,2.81-1.96,4.24-1.96.89,0,1.73.21,2.52.62v4.27c-.94-.21-1.43-.26-2.07-.26-3.65,0-6.46,3.4-6.46,7.82v13.07h-4.54V15.92h4.34Z"/><path class="cls-1" d="M98.54,29.52c.35,5.1,2.81,7.98,6.91,7.98,2.81,0,4.69-1.39,5.77-4.32h4.34c-1.13,5.2-4.93,8.29-10.21,8.29-6.71,0-11.35-5.35-11.35-13.12s4.54-13.07,11.2-13.07c4.74,0,8.19,2.62,9.77,7.41.59,1.85.89,3.86.94,6.85h-17.37v-.02ZM111.17,26.07c-.2-4.53-2.37-7.05-5.97-7.05s-6.37,2.88-6.61,7.05h12.58Z"/><path class="cls-1" d="M123.17,15.93v2.83c2.37-2.62,4.29-3.5,7.55-3.5,2.81,0,5.13.98,6.46,2.73,1.13,1.54,1.58,3.29,1.58,6.18v16.62h-4.54v-16.26c0-3.4-1.48-5.04-4.59-5.04-3.9,0-6.27,2.37-6.27,6.23v15.08h-4.54V15.94h4.35Z"/><path class="cls-1" d="M153.66,19.69h-4.29v15.6c0,1.44.64,2.26,1.78,2.26.64,0,1.28-.15,2.52-.67v3.86c-1.97.46-2.71.57-3.8.57-3.41,0-5.03-1.9-5.03-6.02v-15.6h-3.21v-3.76h3.21v-7.87h4.54v7.87h4.29v3.76h0Z"/><path class="cls-2" d="M161.95,15.93v3.91c.94-1.44,1.33-2.01,1.97-2.62,1.08-1.18,2.81-1.96,4.24-1.96.89,0,1.73.21,2.52.62v4.27c-.94-.21-1.43-.26-2.07-.26-3.65,0-6.46,3.4-6.46,7.82v13.07h-4.54V15.92h4.34Z"/><path class="cls-2" d="M175.67,29.52c.34,5.1,2.81,7.98,6.91,7.98,2.81,0,4.69-1.39,5.77-4.32h4.34c-1.13,5.2-4.93,8.29-10.21,8.29-6.71,0-11.35-5.35-11.35-13.12s4.54-13.07,11.2-13.07c4.74,0,8.19,2.62,9.77,7.41.59,1.85.89,3.86.94,6.85h-17.37v-.02ZM188.3,26.07c-.2-4.53-2.37-7.05-5.97-7.05s-6.37,2.88-6.61,7.05h12.58Z"/><path class="cls-2" d="M218.15,40.79h-4.54v-2.68c-2.27,2.37-4.54,3.35-7.55,3.35-6.37,0-10.36-5.15-10.36-13.23s4.05-12.97,10.36-12.97c3.06,0,5.33,1.03,7.55,3.35V6.46h4.54v34.33ZM200.29,28.33c0,5.87,2.47,9.16,6.76,9.16s6.81-3.29,6.81-9.01-2.42-9.26-6.81-9.26-6.76,3.29-6.76,9.11Z"/><path class="cls-2" d="M228.07,11.96h-4.54v-5.51h4.54v5.51ZM228.07,40.79h-4.54V15.93h4.54v24.86Z"/><path d="M97.78,46.4h1.51v4.09c.75-.8,1.53-1.16,2.53-1.16,2.05,0,3.41,1.71,3.41,4.31s-1.34,4.4-3.46,4.4c-1.02,0-1.72-.33-2.48-1.15v.92h-1.51v-11.41h0ZM99.24,53.63c0,1.98.79,3.08,2.23,3.08s2.23-1.09,2.23-3.04-.8-3.03-2.23-3.03-2.23,1.09-2.23,2.99Z"/><path d="M107.73,54.06c.11,1.69.94,2.65,2.3,2.65.94,0,1.56-.46,1.92-1.44h1.44c-.38,1.73-1.64,2.75-3.4,2.75-2.23,0-3.77-1.78-3.77-4.36s1.51-4.34,3.72-4.34c1.57,0,2.72.87,3.25,2.46.2.62.3,1.28.31,2.28,0,0-5.77,0-5.77,0ZM111.93,52.91c-.07-1.51-.79-2.34-1.98-2.34s-2.12.96-2.2,2.34h4.18Z"/><path d="M122.13,49.47v.91c.74-.75,1.44-1.08,2.41-1.08,2.12,0,3.51,1.74,3.51,4.43s-1.31,4.29-3.38,4.29c-1.07,0-1.94-.39-2.54-1.16v3.56h-1.51v-10.95h1.51ZM122.05,53.61c0,2,.79,3.1,2.25,3.1s2.23-1.09,2.23-3.04-.8-3.04-2.23-3.04-2.25,1.09-2.25,2.99h0Z"/><path d="M130.7,49.58v1.3c.31-.48.44-.67.66-.87.36-.39.94-.65,1.41-.65.29,0,.57.07.84.21v1.42c-.31-.07-.48-.08-.69-.08-1.21,0-2.15,1.13-2.15,2.6v4.34h-1.51v-8.26h1.44,0Z"/><path d="M141.62,53.73c0,2.53-1.56,4.29-3.82,4.29s-3.81-1.76-3.81-4.36,1.54-4.34,3.81-4.34,3.82,1.75,3.82,4.41ZM135.52,53.67c0,1.93.84,3.04,2.3,3.04s2.28-1.11,2.28-2.99c0-1.98-.82-3.08-2.3-3.08s-2.28,1.11-2.28,3.03Z"/><path d="M144.42,49.47v.91c.74-.75,1.44-1.08,2.41-1.08,2.12,0,3.51,1.74,3.51,4.43s-1.31,4.29-3.38,4.29c-1.07,0-1.94-.39-2.54-1.16v3.56h-1.51v-10.95h1.51ZM144.34,53.61c0,2,.79,3.1,2.25,3.1s2.23-1.09,2.23-3.04-.8-3.04-2.23-3.04-2.25,1.09-2.25,2.99h0Z"/><path d="M152.84,54.06c.11,1.69.93,2.65,2.3,2.65.94,0,1.56-.46,1.92-1.44h1.44c-.38,1.73-1.64,2.75-3.4,2.75-2.23,0-3.77-1.78-3.77-4.36s1.51-4.34,3.72-4.34c1.58,0,2.72.87,3.25,2.46.2.62.29,1.28.31,2.28,0,0-5.77,0-5.77,0ZM157.03,52.91c-.07-1.51-.79-2.34-1.99-2.34s-2.12.96-2.2,2.34h4.19Z"/><path d="M161.51,49.54v1.3c.31-.48.44-.67.66-.87.36-.39.94-.65,1.41-.65.29,0,.57.07.84.21v1.42c-.31-.07-.48-.08-.69-.08-1.21,0-2.15,1.13-2.15,2.6v4.34h-1.51v-8.26h1.44,0Z"/><path d="M169.49,50.79h-1.43v5.18c0,.48.21.75.59.75.21,0,.43-.05.84-.22v1.28c-.66.15-.9.19-1.26.19-1.13,0-1.67-.63-1.67-2v-5.18h-1.07v-1.25h1.07v-2.62h1.51v2.62h1.43v1.25h0Z"/><path d="M178.41,49.54l-3.49,9.25c-.44,1.15-1.03,1.62-2,1.62-.39,0-.72-.07-1.21-.26v-1.28c.48.19.66.22.95.22.54,0,.89-.27,1.1-.86l.21-.65-3.28-8.06h1.62l1.76,4.72c.26.72.31.84.59,1.75.18-.62.44-1.47.54-1.75l1.64-4.72h1.58v.02Z"/><path d="M185.89,57.8l-2.4-8.26h1.56l1.17,4.29c.03.17.07.26.29,1.28.03.17.05.29.18.99.08-.34.15-.67.21-1.01.05-.27.12-.56.13-.58l.16-.67,1.07-4.31h1.43l1.1,4.26c.15.65.34,1.62.46,2.31.25-1.2.36-1.73.51-2.29l1.1-4.28h1.58l-2.41,8.26h-1.53l-1-3.85c-.25-.97-.36-1.49-.51-2.14l-.51,2.14-.98,3.85h-1.61Z"/><path d="M197.11,48.23h-1.51v-1.83h1.51v1.83ZM197.11,57.8h-1.51v-8.26h1.51v8.26Z"/><path d="M203.45,52.07c-.21-1.03-.75-1.45-1.8-1.45-.9,0-1.51.39-1.51.98,0,.41.28.68.92.86l1.84.5c1.66.44,2.35,1.16,2.35,2.43,0,1.62-1.28,2.65-3.3,2.65-2.15,0-3.43-1.09-3.59-3.06h1.49c.08,1.09.87,1.75,2.13,1.75,1.08,0,1.79-.5,1.79-1.27,0-.55-.34-.84-1.26-1.09l-1.58-.41c-.84-.22-1.34-.46-1.67-.77-.36-.33-.59-.87-.59-1.42,0-1.42,1.26-2.43,3.05-2.43,1.13,0,2.07.39,2.62,1.09.34.45.49.89.56,1.66h-1.44v-.02Z"/><path d="M207.38,54.06c.11,1.69.93,2.65,2.3,2.65.94,0,1.56-.46,1.92-1.44h1.44c-.38,1.73-1.64,2.75-3.39,2.75-2.23,0-3.77-1.78-3.77-4.36s1.51-4.34,3.72-4.34c1.58,0,2.72.87,3.25,2.46.2.62.29,1.28.31,2.28h-5.78ZM211.58,52.91c-.07-1.51-.79-2.34-1.99-2.34s-2.12.96-2.2,2.34h4.19Z"/><path d="M214.69,50.24h-.41v-2.14h-.94v-.31h2.28v.31h-.93v2.14ZM217.08,50.24l-.74-1.92v1.92h-.41v-2.45h.57l.8,2.03.8-2.03h.55v2.45h-.41v-1.92l-.75,1.92h-.43.02Z"/><path class="cls-2" d="M14.54,17.98v-6.16c0-.72.58-1.31,1.31-1.31h3.62c.72,0,1.3.58,1.3,1.3v.62c0,.81.92,1.29,1.58.81l8.17-5.84c.67-.48,1.57-.45,2.2.07l22.32,18.13.64.54c.66.56,1.62.6,2.32.1l5.53-3.96c.65-.47.91-1.33.59-2.06C58.95,8.32,47.1,0,33.3,0,17.12,0,3.62,11.44.43,26.67c-.2.93.87,1.62,1.65,1.06l11.76-8.41c.44-.31.69-.82.69-1.35h.01Z"/><path class="cls-2" d="M36.31,52.91l-13.74-10.88c-.46-.37-.73-.92-.73-1.51v-9.61c0-.96,1.11-1.49,1.86-.9l13.02,10.32c.45.36,1.09.38,1.56.04l11.83-8.46c.73-.52.76-1.6.07-2.16l-17.75-14.46c-.61-.5-1.48-.52-2.11-.07L.8,36.34c-.56.4-.87,1.08-.78,1.76,2.19,16.43,16.26,29.11,33.3,29.11,18.55,0,33.59-14.88,33.59-33.44,0-.42-.11-.61-.4-.75s-1.02.32-1.02.32l-27.42,19.62c-.53.38-1.25.36-1.76-.04h0ZM32.31,21.9h.88c.71,0,1.29.58,1.29,1.29v.88c0,.41-.33.75-.75.75h-1.42c-.41,0-.75-.33-.75-.75v-1.42c0-.41.33-.75.75-.75ZM32.31,25.6h1.42c.41,0,.75.33.75.75v.88c0,.71-.58,1.29-1.29,1.29h-.88c-.41,0-.75-.33-.75-.75v-1.42c0-.41.33-.75.75-.75ZM29.2,21.9h.82c.41,0,.75.33.75.75v1.42c0,.41-.33.75-.75.75h-1.42c-.41,0-.75-.33-.75-.75v-.82c0-.74.6-1.35,1.35-1.35ZM28.6,25.6h1.42c.41,0,.75.33.75.75v1.42c0,.41-.33.75-.75.75h-.87c-.72,0-1.3-.58-1.3-1.3v-.87c0-.41.33-.75.75-.75Z"/></svg>